# xmcd
#
# Track frame offsets:
#	225
#	14047
#	37054
#	49632
#	67434
#	84177
#	100932
#	119513
#	129826
#	141588
#	163852
#	182166
#	214788
#
# Disc length: 3236 seconds
#
# Revision: 1
# Processed by: cddbd v1.5.1PL0 Copyright (c) Steve Scherf et al.
# Submitted via: EasyCDDAExtractor 6.2.0.3
#
DISCID=c60ca10d
DTITLE=Tacchini Selvaggi - Live Mountain
DYEAR=2003
DGENRE=Country Rock
TTITLE0=Green River
TTITLE1=Call Me The Breeze
TTITLE2=Big Train (from Memphis)
TTITLE3=La Grange
TTITLE4=Knoxville Girl
TTITLE5=Bayou Jubilee
TTITLE6=Copperhead Road
TTITLE7=Diggy Diggy Lo
TTITLE8=Lookin' Out My Backdoor
TTITLE9=The Weight
TTITLE10=Born To Be Wild
TTITLE11=Jessica
TTITLE12=Rockin' In The Free World
EXTD=
EXTT0=
EXTT1=
EXTT2=
EXTT3=
EXTT4=
EXTT5=
EXTT6=
EXTT7=
EXTT8=
EXTT9=
EXTT10=
EXTT11=
EXTT12=
PLAYORDER=
